<?xml version="1.0" encoding="UTF-8"?><svg id="Calque_2" xmlns="http://www.w3.org/2000/svg" viewBox="0 0 700.4 129.23"><defs><style>.cls-1{fill:#e3e2e0;}.cls-2{fill:#0da9bd;}.cls-3{fill:#1d1d1b;stroke:#1d1d1b;stroke-miterlimit:10;stroke-width:.5px;}.cls-4{fill:#c3daec;}.cls-5{fill:#ee6f44;}.cls-6{fill:#8ebf2b;}.cls-7{fill:#f0d64c;}.cls-8{fill:#ea4b77;}</style></defs><g id="Calque_14"><circle class="cls-4" cx="105.85" cy="64.61" r="63.78"/><path class="cls-4" d="M286.58.3c9.4.29,18.49,18.5,23.63,26.11,10.72,17.5,20.64,33.91,31.1,51.73,4.74,8.14,9.89,16.53,14.17,24.84,4.72,9.33,9.61,20.75-4.07,23.76-8.34,1.97-18.6,1.82-27.54,1.99-20.65.19-39.92.28-60.39.12-9.09-.09-18.47-.05-27.5-.42-6.57-.33-14.65-.79-19.55-3.79-8.86-5.74.19-19.38,3.88-26.79,4.03-7.22,8.39-14.49,12.58-21.64,9.79-16.67,19.3-32.36,29.48-49.01,5.24-7.76,14.58-26.6,24.11-26.89h.11Z"/><path class="cls-4" d="M526.91,122.95c-3.68,4.52-15.82,5.32-25.27,5.36-18.22.13-45.38.1-63.96.02-10.34-.43-20.38.39-26.99-5.23-3.57-3.41-4.59-8.8-5.12-14.09-.55-5.87-.58-12.43-.61-18.57.27-22.48-.69-47.67.59-69.98.97-12.97,5.92-17.96,18.93-18.93,22.3-1.28,47.51-.32,69.98-.59,6.14.03,12.71.05,18.57.61,5.29.52,10.68,1.55,14.08,5.12,2,2.11,3.24,5.02,3.99,8.87.92,4.68,1.15,10.8,1.24,18.12.07,18.58.11,45.74-.02,63.96-.05,9.45-.84,21.58-5.36,25.27l-.07.07Z"/><circle class="cls-6" cx="6.64" cy="64.61" r="6.64"/><circle class="cls-5" cx="204.89" cy="64.61" r="6.64"/><circle class="cls-7" cx="369.49" cy="64.61" r="6.64"/><circle class="cls-8" cx="567.85" cy="64.61" r="6.64"/><circle class="cls-2" cx="693.77" cy="64.61" r="6.64"/><path class="cls-4" d="M658.26,64.58c9.81-11.31,19.8-21.9,28.27-33.32,2.65-4.01,4.23-7.6,3.78-11.84-1.4-8.81-9.75-15.76-17.98-18.4-10.64-3.6-19,6.42-25.74,14.06-4.73,5.61-10.05,11.73-15.67,18.13-8.12-9.47-15.9-18.82-24.48-27.26-3.63-3.22-7.03-5.34-11.44-5.64-9.25-.2-17.79,6.52-21.92,13.88-5.53,9.48,3.26,19.16,9.89,26.88,6.26,6.96,13.18,14.97,20.4,23.39-10.64,12.18-20.82,24.16-28.89,34.65-3.64,5.59-4.21,11.03-1.22,16.34,3.57,6.41,11.19,12.29,18.67,13.44l.14.02c11.23,1.03,16.54-7.84,26.52-18.65,3.93-4.52,8.01-9.2,12.18-13.99,8.91,10.18,17.62,19.84,25.51,27.86,5.08,4.42,10.54,5.92,16.47,3.99,7.17-2.28,14.5-8.49,16.97-15.39l.04-.13c3-10.49-5.14-17.07-14.44-28.42-5.45-6.27-11.16-12.83-17.06-19.6Z"/><circle class="cls-1" cx="105.68" cy="64.61" r="63.78"/><path class="cls-1" d="M286.58.3c9.4.29,18.49,18.5,23.63,26.11,10.72,17.5,20.64,33.91,31.1,51.73,4.74,8.14,9.89,16.53,14.17,24.84,4.72,9.33,9.61,20.75-4.07,23.76-8.34,1.97-18.6,1.82-27.54,1.99-20.65.19-39.92.28-60.39.12-9.09-.09-18.47-.05-27.5-.42-6.57-.33-14.65-.79-19.55-3.79-8.86-5.74.19-19.38,3.88-26.79,4.03-7.22,8.39-14.49,12.58-21.64,9.79-16.67,19.3-32.36,29.48-49.01,5.24-7.76,14.58-26.6,24.11-26.89h.11Z"/><path class="cls-1" d="M526.91,122.95c-3.68,4.52-15.82,5.32-25.27,5.36-18.22.13-45.38.1-63.96.02-10.34-.43-20.38.39-26.99-5.23-3.57-3.41-4.59-8.8-5.12-14.09-.55-5.87-.58-12.43-.61-18.57.27-22.48-.69-47.67.59-69.98.97-12.97,5.92-17.96,18.93-18.93,22.3-1.28,47.51-.32,69.98-.59,6.14.03,12.71.05,18.57.61,5.29.52,10.68,1.55,14.08,5.12,2,2.11,3.24,5.02,3.99,8.87.92,4.68,1.15,10.8,1.24,18.12.07,18.58.11,45.74-.02,63.96-.05,9.45-.84,21.58-5.36,25.27l-.07.07Z"/><path class="cls-3" d="M658.26,64.58c9.81-11.31,19.8-21.9,28.27-33.32,2.65-4.01,4.23-7.6,3.78-11.84-1.4-8.81-9.75-15.76-17.98-18.4-10.64-3.6-19,6.42-25.74,14.06-4.73,5.61-10.05,11.73-15.67,18.13-8.12-9.47-15.9-18.82-24.48-27.26-3.63-3.22-7.03-5.34-11.44-5.64-9.25-.2-17.79,6.52-21.92,13.88-5.53,9.48,3.26,19.16,9.89,26.88,6.26,6.96,13.18,14.97,20.4,23.39-10.64,12.18-20.82,24.16-28.89,34.65-3.64,5.59-4.21,11.03-1.22,16.34,3.57,6.41,11.19,12.29,18.67,13.44l.14.02c11.23,1.03,16.54-7.84,26.52-18.65,3.93-4.52,8.01-9.2,12.18-13.99,8.91,10.18,17.62,19.84,25.51,27.86,5.08,4.42,10.54,5.92,16.47,3.99,7.17-2.28,14.5-8.49,16.97-15.39l.04-.13c3-10.49-5.14-17.07-14.44-28.42-5.45-6.27-11.16-12.83-17.06-19.6Z"/><path class="cls-3" d="M138.41,79.17c-5.04,0-9.58,2.12-12.8,5.5h0c-5.13,5.12-12.22,8.29-20.04,8.29-14.83,0-27-11.4-28.24-25.91,1.19,8.62,8.57,15.26,17.52,15.26,9.78,0,17.7-7.93,17.7-17.7s-7.93-17.7-17.7-17.7c-8.95,0-16.33,6.64-17.52,15.27,1.24-14.51,13.4-25.91,28.24-25.91,7.83,0,14.91,3.17,20.04,8.3.02-.02.04-.04.06-.06,3.24,3.56,7.89,5.81,13.08,5.81,9.78,0,17.7-7.93,17.7-17.7,0-5.19-2.25-9.85-5.81-13.08h.01c-24.74-24.75-65.46-24.75-90.2-.01-24.74,24.74-24.74,65.46,0,90.2,24.74,24.74,65.46,24.74,90.2,0l-.04-.04c3.38-3.22,5.5-7.76,5.5-12.8,0-9.78-7.93-17.7-17.7-17.7Z"/><path class="cls-3" d="M355.48,102.97c-1.8-3.5-3.76-7.01-5.78-10.52-2.63-6.47-8.98-11.04-16.39-11.04-9.78,0-17.7,7.93-17.7,17.7,0,.95.1,1.87.24,2.77-9.06.06-17.91.06-27.14,0-5.67-.06-11.52-.03-17.16-.26-4.1-.21-9.14-.49-12.2-2.37-5.53-3.58.12-12.09,2.42-16.72,2.51-4.51,5.23-9.04,7.85-13.5,4.31-7.34,8.54-14.37,12.88-21.53,3.62,3.42,8.66,5.34,14.15,4.73,8.15-.91,14.72-7.5,15.58-15.65.54-5.04-1.05-9.7-3.96-13.23-5.31-8.56-13.37-22.81-21.68-23.07h-.11c-9.52.29-18.87,19.13-24.11,26.89-10.19,16.65-19.69,32.34-29.48,49.01-4.19,7.15-8.55,14.42-12.58,21.64-3.69,7.41-12.74,21.06-3.88,26.79,4.9,3,12.98,3.46,19.55,3.79,9.04.37,18.42.33,27.5.42,20.47.16,39.74.08,60.39-.12,8.94-.17,19.19-.02,27.54-1.99,13.68-3.01,8.79-14.43,4.07-23.76Z"/><path class="cls-3" d="M488.61,122.95c-1.12,4.52-4.8,5.32-7.67,5.36-5.53.13-13.78.1-19.42.02-3.14-.43-6.19.39-8.2-5.23-1.08-3.41-1.39-8.8-1.55-14.09-.17-5.87-.17-12.43-.18-18.57.08-22.48-.21-47.67.18-69.98.3-12.97,1.8-17.96,5.75-18.93,6.77-1.28,14.43-.32,21.25-.59,1.87.03,3.86.05,5.64.61,1.61.52,3.24,1.55,4.28,5.12.61,2.11.98,5.02,1.21,8.87.28,4.68.35,10.8.38,18.12.02,18.58.03,45.74,0,63.96-.02,9.45-.26,21.58-1.63,25.27l-.02.07Z"/></g></svg>